<?xml version="1.0" ?><svg xmlns="http://www.w3.org/2000/svg" xmlns:xlink="http://www.w3.org/1999/xlink" version="1.1" viewBox="0 0 512 512" style="enable-background:new 0 0 512 512;" xml:space="preserve"><g id="_x31_9_Balloons_x2C__Offer_x2C__Sales_x2C__Birthday_and_Party_x2C__Bargain"><g><path style="fill:#6EC27D;" d="M355.82,377.95h-34.64L303.5,431c18.852,0,59.018,0,70,0L355.82,377.95z"/><path style="fill:#82E693;" d="M468.5,211c0,71.522-76.311,170-130,170c-5.56,0-11.37-1.06-17.32-3.05    c-32.8-10.93-69.76-49.88-92.12-93.38c39.3-34.12,74.44-94.91,74.44-143.57c0-18.39-3.82-35.88-10.7-51.74    C377.454,57.47,468.5,120.076,468.5,211z"/><path style="fill:#D01273;" d="M190.82,307.95h-34.64L138.5,361c18.852,0,59.018,0,70,0L190.82,307.95z"/><path style="fill:#FF6378;" d="M303.5,141c0,71.953-76.606,170-130,170c-5.56,0-11.37-1.06-17.32-3.05    C104.92,290.87,43.5,205.34,43.5,141c0-71.8,58.2-130,130-130C245.401,11,303.5,69.293,303.5,141z"/><g><path d="M478.5,211c0-94.677-91.951-161.017-180.534-134.05C274.68,31.882,227.63,1,173.5,1c-77.196,0-140,62.804-140,140     c0,61.175,55,147.655,110.173,172.849l-14.66,43.989c-2.156,6.473,2.67,13.162,9.487,13.162h25v130c0,5.523,4.478,10,10,10     s10-4.477,10-10V371h25c6.822,0,11.642-6.693,9.487-13.162l-14.707-44.129c7.597-3.512,15.232-8.2,22.749-13.83     c22.132,38.424,53.579,70.271,82.692,83.826l-14.708,44.133c-2.156,6.473,2.67,13.162,9.487,13.162h25v60c0,5.523,4.478,10,10,10     s10-4.477,10-10v-60h25c6.822,0,11.642-6.693,9.487-13.162l-14.707-44.129C421.269,359.116,478.5,275.846,478.5,211z M53.5,141     c0-66.168,53.832-120,120-120s120,53.832,120,120c0,46.3-34.177,103.79-70.636,135.723c-0.296,0.233-0.577,0.479-0.841,0.74     C209.072,288.656,190.438,301,173.5,301C128.46,301,53.5,210.725,53.5,141z M194.627,351h-42.254l10.338-31.017     c7.795,1.414,14.423,1.305,21.568-0.031L194.627,351z M317.373,421l10.342-31.032c7.269,1.35,14.303,1.35,21.569,0.001     L359.627,421H317.373z M352.648,368.466c-10.076,3.37-18.239,3.363-28.308-0.003c-27.511-9.168-60.797-42.248-82.762-81.709     C280.971,249.646,313.5,189.276,313.5,141c0-15.929-2.68-31.243-7.604-45.521C381.161,74.064,458.5,130.634,458.5,211     C458.5,272.782,397.895,353.39,352.648,368.466z"/><path d="M230.069,104.431c-3.905-3.905-10.237-3.905-14.143,0l-98.995,98.995c-3.905,3.905-3.905,10.237,0,14.143     c3.905,3.905,10.238,3.905,14.143,0l98.995-98.995C233.974,114.669,233.974,108.337,230.069,104.431z"/><circle cx="145.147" cy="132.745" r="9.995"/><ellipse transform="matrix(0.9571 -0.2898 0.2898 0.9571 -46.1996 66.5963)" cx="201.783" cy="189.305" rx="9.995" ry="9.995"/></g></g></g><g id="Layer_1"/></svg>